# xmcd CD database file
#
# Track frame offsets:
#	151
#	12250
#	25537
#	36193
#	49698
#	62046
#	74259
#	88046
#	101744
#	120236
#	137240
#	155000
#
# Disc length: 2261 seconds
#
# Revision: 0
# Processed by: cddbd v1.4PL0 Copyright (c) Steve Scherf et al.
# Submitted via: CDex 1.50
#
DISCID=9908d30c
DTITLE=Patrick Normand - Chansons de Mariage
DYEAR=2001
DGENRE=Country
TTITLE0=Cet anneau d'or
TTITLE1=Pour vivre ensemble
TTITLE2=Marche nuptiale
TTITLE3=Que dieu protège notre amour
TTITLE4=Ave Maria
TTITLE5=Hawaian weeding song
TTITLE6=L'hymne à l'amour
TTITLE7=Can't help falling in love
TTITLE8=Ils s'aiment
TTITLE9=Unchained melody
TTITLE10=Une chance qu'ons'a
TTITLE11=Les vieux mariés
EXTD=YEAR: 2001
EXTT0=
EXTT1=
EXTT2=
EXTT3=
EXTT4=
EXTT5=
EXTT6=
EXTT7=
EXTT8=
EXTT9=
EXTT10=
EXTT11=
PLAYORDER=
